<svg width="170" height="99" viewBox="0 0 170 99" fill="none" xmlns="http://www.w3.org/2000/svg">
<g clip-path="url(#clip0_333_1098)">
<path d="M29.3495 0H0V29.2757L29.3495 0Z" fill="white"/>
<path d="M65.2212 86.5543H86.7725V65.0571L65.2212 86.5543Z" fill="white"/>
<path d="M0 41.7214V86.5543H44.9458L0 41.7214Z" fill="white"/>
<path d="M30.4839 11.0314L41.1178 28.0029H41.2595V11.0314H46.5056V36.4886H40.8342L30.2003 19.5171H30.0585V36.4886H24.8125V11.0314H30.4839Z" fill="white"/>
<path d="M70.4674 11.0314V15.6986H56.9979V21.2143H69.3332V25.4572H56.9979V31.68H70.751V36.3472H51.4683V10.89H70.4674V11.0314Z" fill="white"/>
<path d="M72.5938 15.6986V11.0314H93.4361V15.6986H85.7797V36.4886H80.1083V15.6986H72.5938Z" fill="white"/>
<path d="M107.898 11.0314C109.458 11.0314 110.876 11.3143 112.01 11.7386C113.144 12.1629 113.995 12.87 114.704 13.5771C115.413 14.2843 115.98 15.2743 116.264 16.1229C116.547 17.1129 116.689 18.1029 116.689 19.0929C116.689 20.0829 116.547 21.0729 116.264 22.0629C115.98 23.0529 115.413 23.9014 114.704 24.75C113.995 25.4571 113.144 26.1643 112.01 26.5886C110.876 27.0129 109.6 27.2957 107.898 27.2957H101.943V36.4886H96.272V11.0314H107.898ZM106.339 22.9114C107.048 22.9114 107.615 22.9114 108.182 22.77C108.749 22.6286 109.316 22.4871 109.742 22.2043C110.167 21.9214 110.592 21.4971 110.876 21.0729C111.159 20.5071 111.301 19.9414 111.301 19.0929C111.301 18.2443 111.159 17.6786 110.876 17.1129C110.592 16.5471 110.309 16.2643 109.742 15.9814C109.316 15.6986 108.749 15.5571 108.182 15.4157C107.615 15.2743 106.906 15.2743 106.339 15.2743H101.943V22.9114H106.339Z" fill="white"/>
<path d="M133.987 11.0314C135.121 11.0314 136.114 11.1729 137.106 11.5972C137.957 12.0214 138.808 12.4457 139.517 13.1529C140.226 13.86 140.651 14.5672 141.076 15.4157C141.36 16.2643 141.643 17.1129 141.643 18.1029C141.643 19.6586 141.36 20.9314 140.651 21.9214C140.084 23.0529 138.949 23.9014 137.532 24.4672V24.6086C138.241 24.75 138.808 25.0329 139.233 25.4572C139.658 25.8814 140.084 26.3057 140.367 26.8714C140.651 27.4372 140.793 28.0029 140.934 28.5686C141.076 29.2757 141.218 29.8414 141.218 30.5486C141.218 30.9729 141.218 31.3972 141.36 31.9629C141.36 32.5286 141.36 33.0943 141.502 33.66C141.502 34.2257 141.643 34.7914 141.785 35.2157C141.927 35.7814 142.069 36.2057 142.352 36.4886H136.681C136.397 35.64 136.114 34.65 136.114 33.66C135.972 32.5286 135.972 31.5386 135.83 30.4072C135.688 29.1343 135.263 28.1443 134.554 27.4372C133.987 26.8714 132.853 26.4472 131.577 26.4472H125.905V36.3472H120.234V10.89H133.987V11.0314ZM132.002 22.4872C133.278 22.4872 134.271 22.2043 134.838 21.6386C135.547 21.0729 135.83 20.0829 135.83 18.81C135.83 17.5372 135.547 16.6886 134.838 16.1229C134.129 15.5572 133.278 15.2743 132.002 15.2743H125.905V22.4872H132.002Z" fill="white"/>
<path d="M145.755 18.5271C146.322 16.83 147.173 15.4157 148.165 14.2843C149.3 13.0114 150.576 12.1628 152.135 11.4557C153.695 10.7486 155.396 10.4657 157.381 10.4657C159.366 10.4657 161.068 10.7486 162.627 11.4557C164.187 12.1628 165.463 13.1528 166.597 14.2843C167.732 15.5571 168.441 16.9714 169.008 18.5271C169.575 20.2243 169.858 21.9214 169.858 23.76C169.858 25.5986 169.575 27.2957 169.008 28.9928C168.441 30.5486 167.59 31.9628 166.597 33.2357C165.463 34.3671 164.187 35.3571 162.627 36.0643C161.068 36.7714 159.366 37.0543 157.381 37.0543C155.396 37.0543 153.695 36.7714 152.135 36.0643C150.576 35.3571 149.3 34.5086 148.165 33.2357C147.031 32.1043 146.322 30.69 145.755 28.9928C145.188 27.4371 144.904 25.5986 144.904 23.76C144.904 21.9214 145.188 20.0828 145.755 18.5271ZM150.859 26.8714C151.143 27.8614 151.568 28.8514 151.994 29.5586C152.561 30.4071 153.27 30.9728 154.12 31.5386C154.971 31.9628 156.105 32.2457 157.381 32.2457C158.657 32.2457 159.65 31.9628 160.642 31.5386C161.493 31.1143 162.202 30.4071 162.769 29.5586C163.336 28.71 163.762 27.8614 163.903 26.8714C164.187 25.8814 164.329 24.8914 164.329 23.76C164.329 22.6286 164.187 21.4971 163.903 20.5071C163.62 19.5171 163.195 18.5271 162.769 17.6786C162.202 16.83 161.493 16.2643 160.642 15.6986C159.792 15.2743 158.657 14.9914 157.381 14.9914C156.105 14.9914 155.113 15.2743 154.12 15.6986C153.27 16.1228 152.561 16.83 151.994 17.6786C151.426 18.5271 151.001 19.3757 150.859 20.5071C150.576 21.4971 150.434 22.6286 150.434 23.76C150.434 24.8914 150.576 25.8814 150.859 26.8714Z" fill="white"/>
<path d="M35.3043 61.2385C34.4536 61.6628 33.4611 61.8043 32.6104 61.8043C31.1925 61.8043 29.9164 61.5214 28.7822 61.0971C27.6479 60.5314 26.6554 59.9657 25.9465 58.9757C25.0958 58.1271 24.5286 57.1371 24.1033 55.8643C23.6779 54.7328 23.5361 53.46 23.5361 52.0457C23.5361 50.6314 23.6779 49.3585 24.1033 48.2271C24.5286 47.0957 25.0958 45.9643 25.9465 45.1157C26.7972 44.2671 27.6479 43.56 28.7822 42.9943C29.9164 42.4285 31.1925 42.2871 32.6104 42.2871C33.6029 42.2871 34.4536 42.4285 35.4461 42.7114C36.2968 42.9943 37.1475 43.4185 37.8564 43.9843C38.5653 44.55 39.1325 45.2571 39.6996 46.1057C40.125 46.9543 40.4085 47.8028 40.5503 48.9343H36.5803C36.2968 47.9443 35.8714 47.0957 35.1625 46.53C34.4536 45.9643 33.6029 45.6814 32.6104 45.6814C31.6179 45.6814 30.9089 45.8228 30.2 46.2471C29.4911 46.6714 29.0657 47.0957 28.6404 47.6614C28.215 48.2271 27.9315 48.9343 27.7897 49.7828C27.6479 50.49 27.5061 51.3385 27.5061 52.1871C27.5061 53.0357 27.6479 53.7428 27.7897 54.45C27.9315 55.1571 28.215 55.8643 28.6404 56.43C29.0657 56.9957 29.6329 57.5614 30.2 57.8443C30.9089 58.2685 31.6179 58.41 32.6104 58.41C34.0282 58.41 35.0207 58.1271 35.7296 57.42C36.4386 56.7128 36.8639 55.7228 37.0057 54.45H32.8939V51.3385H40.8339V61.38H38.2818L37.8564 59.2585C37.1475 60.1071 36.2968 60.8143 35.3043 61.2385Z" fill="white"/>
<path d="M54.3032 42.5699C55.1539 42.5699 55.8629 42.7114 56.5718 42.9942C57.2807 43.2771 57.8479 43.7014 58.2732 44.1257C58.6986 44.5499 59.1239 45.1157 59.4075 45.8228C59.6911 46.3885 59.8328 47.0957 59.8328 47.8028C59.8328 48.9342 59.5493 49.9242 59.1239 50.6314C58.6986 51.4799 57.8479 52.0457 56.8554 52.4699C57.4225 52.6114 57.8479 52.7528 58.1314 53.1771C58.415 53.4599 58.6986 53.7428 58.9821 54.1671C59.1239 54.5914 59.4075 55.0157 59.4075 55.4399C59.5493 55.8642 59.5493 56.4299 59.5493 56.8542C59.5493 57.1371 59.5493 57.5614 59.5493 57.8442C59.5493 58.2685 59.5493 58.6928 59.6911 59.1171C59.6911 59.5414 59.8328 59.9657 59.8328 60.2485C59.9746 60.6728 60.1164 60.9557 60.2582 61.2385H56.1464C55.8629 60.6728 55.7211 59.9657 55.7211 59.1171C55.7211 58.2685 55.5793 57.5614 55.4375 56.7128C55.2957 55.7228 55.0122 55.0157 54.5868 54.5914C54.1614 54.1671 53.4525 53.8842 52.3182 53.8842H48.2065V61.2385H44.0947V42.5699H54.3032ZM52.8854 51.0557C53.8779 51.0557 54.5868 50.9142 55.0122 50.4899C55.4375 50.0657 55.7211 49.3585 55.7211 48.5099C55.7211 47.6614 55.4375 46.9542 55.0122 46.5299C54.5868 46.1057 53.8779 45.9642 52.8854 45.9642H48.3483V51.1971H52.8854V51.0557Z" fill="white"/>
<path d="M62.9524 48.2271C63.3778 47.0957 63.9449 45.9643 64.7956 45.1157C65.6463 44.2671 66.497 43.56 67.6313 42.9943C68.7656 42.4285 70.0416 42.2871 71.4595 42.2871C72.8773 42.2871 74.1534 42.57 75.2877 42.9943C76.422 43.56 77.4144 44.2671 78.1234 45.1157C78.9741 45.9643 79.5412 47.0957 79.9666 48.2271C80.3919 49.3585 80.5337 50.7728 80.5337 52.0457C80.5337 53.46 80.3919 54.7328 79.9666 55.8643C79.5412 56.9957 78.9741 58.1271 78.1234 58.9757C77.2727 59.8243 76.422 60.5314 75.2877 61.0971C74.1534 61.6628 72.8773 61.8043 71.4595 61.8043C70.0416 61.8043 68.7656 61.5214 67.6313 61.0971C66.497 60.5314 65.5045 59.9657 64.7956 58.9757C63.9449 58.1271 63.3778 57.1371 62.9524 55.8643C62.527 54.7328 62.3853 53.46 62.3853 52.0457C62.3853 50.6314 62.527 49.3585 62.9524 48.2271ZM66.7806 54.3085C66.9224 55.0157 67.2059 55.7228 67.6313 56.2885C68.0566 56.8543 68.6238 57.42 69.1909 57.7028C69.8999 58.1271 70.6088 58.2685 71.6013 58.2685C72.5938 58.2685 73.3027 58.1271 74.0116 57.7028C74.7205 57.2785 75.1459 56.8543 75.5712 56.2885C75.9966 55.7228 76.2802 55.0157 76.422 54.3085C76.5637 53.6014 76.7055 52.7528 76.7055 52.0457C76.7055 51.1971 76.5637 50.49 76.422 49.6414C76.2802 48.9343 75.9966 48.2271 75.5712 47.52C75.1459 46.9543 74.5788 46.3885 74.0116 46.1057C73.3027 45.6814 72.5938 45.54 71.6013 45.54C70.6088 45.54 69.8999 45.6814 69.1909 46.1057C68.482 46.53 68.0566 46.9543 67.6313 47.52C67.2059 48.0857 66.9224 48.7928 66.7806 49.6414C66.6388 50.3485 66.497 51.1971 66.497 52.0457C66.497 52.8943 66.497 53.6014 66.7806 54.3085Z" fill="white"/>
<path d="M97.4061 59.9657C95.9883 61.2385 94.0033 61.8042 91.593 61.8042C89.0408 61.8042 87.0558 61.2385 85.638 59.9657C84.2202 58.6928 83.5112 56.8542 83.5112 54.3085V42.7114H87.623V54.3085C87.623 54.8742 87.623 55.2985 87.7648 55.8642C87.9066 56.2885 88.0483 56.8542 88.3319 57.1371C88.6155 57.5614 89.0408 57.8442 89.4662 57.9857C89.8915 58.1271 90.6005 58.2685 91.4512 58.2685C92.869 58.2685 94.0033 57.9857 94.4286 57.2785C94.9958 56.5714 95.2794 55.5814 95.2794 54.1671V42.5699H99.3911V54.1671C99.5329 56.8542 98.824 58.6928 97.4061 59.9657Z" fill="white"/>
<path d="M111.443 42.5699C112.577 42.5699 113.569 42.7114 114.42 43.1357C115.271 43.4185 115.98 43.9842 116.405 44.5499C116.972 45.1157 117.256 45.6814 117.539 46.5299C117.823 47.2371 117.823 47.9442 117.823 48.7928C117.823 49.4999 117.681 50.3485 117.539 51.0557C117.256 51.7628 116.972 52.4699 116.405 53.0357C115.838 53.6014 115.271 54.0257 114.42 54.4499C113.569 54.7328 112.577 55.0157 111.443 55.0157H107.047V61.6628H102.936V42.5699H111.443ZM110.308 51.4799C110.734 51.4799 111.301 51.4799 111.726 51.3385C112.152 51.3385 112.577 51.1971 112.86 50.9142C113.144 50.7728 113.428 50.4899 113.711 50.0657C113.853 49.6414 113.995 49.2171 113.995 48.6514C113.995 48.0857 113.853 47.5199 113.711 47.2371C113.569 46.8128 113.286 46.5299 112.86 46.3885C112.577 46.2471 112.152 46.1057 111.726 45.9642C111.301 45.9642 110.876 45.8228 110.308 45.8228H107.047V51.4799H110.308Z" fill="white"/>
<path d="M3.11914 93.7671C3.40271 93.7671 3.68628 93.7671 3.96985 93.9085C4.25342 94.0499 4.39521 94.1914 4.53699 94.3328C4.67878 94.4742 4.82056 94.6157 4.82056 94.8985C4.82056 95.0399 4.96235 95.3228 4.96235 95.4642C4.96235 95.6057 4.96235 95.8885 4.82056 96.03C4.82056 96.1714 4.67878 96.4542 4.53699 96.5957C4.39521 96.7371 4.25342 96.8785 3.96985 96.8785C3.68628 97.02 3.40271 97.0199 3.11914 97.0199H1.98486V98.8585H0.850586V93.7671H3.11914ZM2.83557 96.1714C2.97736 96.1714 3.11914 96.1714 3.26093 96.1714C3.40271 96.1714 3.5445 96.1714 3.5445 96.03C3.68628 96.03 3.68628 95.8885 3.82807 95.7471C3.82807 95.6057 3.96985 95.4642 3.96985 95.3228C3.96985 95.1814 3.96985 95.0399 3.82807 94.8985C3.82807 94.7571 3.68628 94.7571 3.5445 94.6157C3.40271 94.7571 3.26093 94.7571 3.26093 94.7571C3.11914 94.7571 2.97736 94.7571 2.83557 94.7571H1.98486V96.1714H2.83557Z" fill="white"/>
<path d="M5.52948 96.3128C5.67127 96.03 5.81305 95.8885 5.95483 95.7471C6.09662 95.6057 6.38019 95.4643 6.52197 95.3228C6.80554 95.1814 7.08911 95.1814 7.37268 95.1814C7.65625 95.1814 7.93982 95.1814 8.22339 95.3228C8.50696 95.4643 8.64875 95.6057 8.79053 95.7471C8.93232 95.8885 9.0741 96.1714 9.21589 96.3128C9.35767 96.5957 9.35767 96.8785 9.35767 97.1614C9.35767 97.4442 9.35767 97.7271 9.21589 98.01C9.0741 98.2928 8.93232 98.4342 8.79053 98.5757C8.64875 98.7171 8.36518 98.8585 8.22339 98.9999C7.93982 98.9999 7.65625 98.9999 7.37268 98.9999C7.08911 98.9999 6.80554 98.9999 6.52197 98.8585C6.2384 98.7171 6.09662 98.5757 5.95483 98.4342C5.81305 98.2928 5.67127 98.0099 5.52948 97.8685C5.3877 97.5857 5.3877 97.3028 5.3877 97.02C5.3877 96.7371 5.3877 96.4542 5.52948 96.3128ZM6.52197 97.4442C6.52197 97.5857 6.66376 97.7271 6.66376 97.8685C6.66376 98.0099 6.80554 98.01 6.94733 98.1514C7.08911 98.1514 7.2309 98.2928 7.37268 98.2928C7.51447 98.2928 7.65625 98.2928 7.79804 98.1514C7.93982 98.1514 7.93982 98.0099 8.08161 97.8685C8.08161 97.7271 8.22339 97.5857 8.22339 97.4442C8.22339 97.3028 8.22339 97.1614 8.22339 97.02C8.22339 96.8785 8.22339 96.7371 8.22339 96.5957C8.22339 96.4542 8.08161 96.3128 8.08161 96.1714C8.08161 96.03 7.93982 96.03 7.79804 95.8885C7.65625 95.8885 7.51447 95.7471 7.37268 95.7471C7.2309 95.7471 7.08911 95.7471 6.94733 95.8885C6.80554 95.8885 6.80554 96.03 6.66376 96.1714C6.66376 96.3128 6.52197 96.4542 6.52197 96.5957C6.52197 96.7371 6.52197 96.8785 6.52197 97.02C6.38019 97.1614 6.38019 97.3028 6.52197 97.4442Z" fill="white"/>
<path d="M13.0439 98.8585L12.335 96.3128L11.7679 98.8585H10.7754L9.64111 95.1814H10.7754L11.3425 97.7271L11.9097 95.1814H12.9022L13.4693 97.7271L14.1782 95.1814H15.1707L14.1782 98.8585H13.0439Z" fill="white"/>
<path d="M16.8723 98.01C17.014 98.1514 17.2976 98.2928 17.5812 98.2928C17.723 98.2928 18.0065 98.2928 18.1483 98.1514C18.2901 98.01 18.4319 98.01 18.4319 97.8685H19.2826C19.1408 98.2928 18.8572 98.5757 18.5737 98.8585C18.2901 99 17.8647 99.1414 17.4394 99.1414C17.1558 99.1414 16.8723 99.1414 16.5887 99C16.3051 98.8585 16.1633 98.7171 16.0215 98.5757C15.8798 98.4342 15.738 98.1514 15.5962 98.01C15.5962 97.5857 15.5962 97.3028 15.5962 97.02C15.5962 96.7371 15.5962 96.4542 15.738 96.3128C15.8798 96.03 16.0215 95.8885 16.1633 95.7471C16.3051 95.6057 16.5887 95.4643 16.7305 95.3228C17.014 95.1814 17.1558 95.1814 17.4394 95.1814C17.723 95.1814 18.0065 95.1814 18.2901 95.3228C18.5737 95.4643 18.7155 95.6057 18.8572 95.7471C18.999 95.8885 19.1408 96.1714 19.1408 96.4542C19.1408 96.7371 19.2826 97.02 19.2826 97.3028H16.5887C16.5887 97.5857 16.7305 97.8685 16.8723 98.01ZM18.0065 96.03C17.8647 95.8885 17.723 95.8885 17.4394 95.8885C17.2976 95.8885 17.1558 95.8885 17.014 96.03C16.8723 96.03 16.8723 96.1714 16.7305 96.1714C16.7305 96.3128 16.5887 96.3128 16.5887 96.4542C16.5887 96.5957 16.5887 96.5957 16.5887 96.7371H18.2901C18.1483 96.4542 18.1483 96.1714 18.0065 96.03Z" fill="white"/>
<path d="M20.8421 95.1814V95.8885C20.8421 95.7471 20.9839 95.6057 20.9839 95.6057C21.1257 95.4642 21.1257 95.4643 21.2675 95.3228C21.4092 95.3228 21.551 95.1814 21.551 95.1814C21.6928 95.1814 21.8346 95.1814 21.9764 95.1814C21.9764 95.1814 22.1182 95.1814 22.26 95.1814V96.1714H22.1182H21.9764C21.8346 96.1714 21.6928 96.1714 21.551 96.3128C21.4092 96.3128 21.2675 96.4543 21.2675 96.5957C21.1257 96.7371 21.1257 96.8785 21.1257 97.02C21.1257 97.1614 21.1257 97.3028 21.1257 97.4442V99.1414H19.8496V95.4642H20.8421V95.1814Z" fill="white"/>
<path d="M28.3566 93.7671V94.7571H25.9463V95.8885H28.0731V96.7371H25.9463V98.8585H24.812V93.7671H28.3566Z" fill="white"/>
<path d="M28.924 96.3128C29.0658 96.03 29.2076 95.8885 29.3494 95.7471C29.4912 95.6057 29.7747 95.4643 29.9165 95.3228C30.2001 95.1814 30.4836 95.1814 30.7672 95.1814C31.0508 95.1814 31.3344 95.1814 31.6179 95.3228C31.9015 95.4643 32.0433 95.6057 32.1851 95.7471C32.3268 95.8885 32.4686 96.1714 32.6104 96.3128C32.7522 96.5957 32.7522 96.8785 32.7522 97.1614C32.7522 97.4442 32.7522 97.7271 32.6104 98.01C32.4686 98.2928 32.3268 98.4342 32.1851 98.5757C32.0433 98.7171 31.7597 98.8585 31.6179 98.9999C31.3344 98.9999 31.0508 98.9999 30.7672 98.9999C30.4836 98.9999 30.2001 98.9999 29.9165 98.8585C29.6329 98.7171 29.4912 98.5757 29.3494 98.4342C29.2076 98.2928 29.0658 98.0099 28.924 97.8685C28.7822 97.5857 28.7822 97.3028 28.7822 97.02C28.7822 96.7371 28.7822 96.4542 28.924 96.3128ZM29.9165 97.4442C29.9165 97.5857 30.0583 97.7271 30.0583 97.8685C30.0583 98.0099 30.2001 98.01 30.3419 98.1514C30.4836 98.1514 30.6254 98.2928 30.7672 98.2928C30.909 98.2928 31.0508 98.2928 31.1926 98.1514C31.3344 98.1514 31.3344 98.0099 31.4761 97.8685C31.4761 97.7271 31.6179 97.5857 31.6179 97.4442C31.6179 97.3028 31.6179 97.1614 31.6179 97.02C31.6179 96.8785 31.6179 96.7371 31.6179 96.5957C31.6179 96.4542 31.4761 96.3128 31.4761 96.1714C31.4761 96.03 31.3344 96.03 31.1926 95.8885C31.0508 95.8885 30.909 95.7471 30.7672 95.7471C30.6254 95.7471 30.4836 95.7471 30.3419 95.8885C30.2001 95.8885 30.2001 96.03 30.0583 96.1714C30.0583 96.3128 29.9165 96.4542 29.9165 96.5957C29.9165 96.7371 29.9165 96.8785 29.9165 97.02C29.7747 97.1614 29.7747 97.3028 29.9165 97.4442Z" fill="white"/>
<path d="M34.312 95.1814V95.8885C34.312 95.7471 34.4537 95.6057 34.4537 95.6057C34.5955 95.4642 34.5955 95.4643 34.7373 95.3228C34.8791 95.3228 35.0209 95.1814 35.0209 95.1814C35.1627 95.1814 35.3044 95.1814 35.4462 95.1814C35.4462 95.1814 35.588 95.1814 35.7298 95.1814V96.1714H35.588H35.4462C35.3044 96.1714 35.1627 96.1714 35.0209 96.3128C34.8791 96.3128 34.7373 96.4543 34.7373 96.5957C34.5955 96.7371 34.5955 96.8785 34.5955 97.02C34.5955 97.1614 34.5955 97.3028 34.5955 97.4442V99.1414H33.603V95.4642H34.312V95.1814Z" fill="white"/>
<path d="M37.5728 93.7671H38.8488L39.9831 95.7471L41.1174 93.7671H42.5352L40.692 96.8785V98.8585H39.5577V96.8785L37.5728 93.7671Z" fill="white"/>
<path d="M42.1097 96.3128C42.2515 96.03 42.3933 95.8885 42.5351 95.7471C42.6769 95.6057 42.9605 95.4643 43.1022 95.3228C43.3858 95.1814 43.6694 95.1814 43.9529 95.1814C44.2365 95.1814 44.5201 95.1814 44.8037 95.3228C45.0872 95.4643 45.229 95.6057 45.3708 95.7471C45.5126 95.8885 45.6544 96.1714 45.7962 96.3128C45.9379 96.5957 45.9379 96.8785 45.9379 97.1614C45.9379 97.4442 45.9379 97.7271 45.7962 98.01C45.6544 98.2928 45.5126 98.4342 45.3708 98.5757C45.229 98.7171 44.9454 98.8585 44.8037 98.9999C44.3783 98.9999 44.2365 98.9999 43.8112 98.9999C43.3858 98.9999 43.244 98.9999 42.9605 98.8585C42.6769 98.7171 42.5351 98.5757 42.3933 98.4342C42.2515 98.2928 42.1097 98.0099 41.968 97.8685C41.8262 97.5857 41.8262 97.3028 41.8262 97.02C41.968 96.7371 41.968 96.4542 42.1097 96.3128ZM42.9605 97.4442C42.9605 97.5857 43.1022 97.7271 43.1022 97.8685C43.1022 98.0099 43.244 98.01 43.3858 98.1514C43.5276 98.1514 43.6694 98.2928 43.8112 98.2928C43.9529 98.2928 44.0947 98.2928 44.2365 98.1514C44.3783 98.1514 44.3783 98.0099 44.5201 97.8685C44.5201 97.7271 44.6619 97.5857 44.6619 97.4442C44.6619 97.3028 44.6619 97.1614 44.6619 97.02C44.6619 96.8785 44.6619 96.7371 44.6619 96.5957C44.6619 96.4542 44.5201 96.3128 44.5201 96.1714C44.5201 96.03 44.3783 96.03 44.2365 95.8885C44.0947 95.8885 43.9529 95.7471 43.8112 95.7471C43.6694 95.7471 43.5276 95.7471 43.3858 95.8885C43.244 95.8885 43.244 96.03 43.1022 96.1714C43.1022 96.3128 42.9605 96.4542 42.9605 96.5957C42.9605 96.7371 42.9605 96.8785 42.9605 97.02C42.9605 97.1614 42.9605 97.3028 42.9605 97.4442Z" fill="white"/>
<path d="M48.9157 98.8585V98.2928C48.7739 98.5756 48.6321 98.717 48.3486 98.717C48.2068 98.9999 48.065 98.9999 47.7814 98.9999C47.4979 98.9999 47.2143 98.9999 47.0725 98.8585C46.9307 98.717 46.7889 98.717 46.6472 98.5756C46.5054 98.4342 46.5054 98.2928 46.5054 98.1513C46.5054 98.0099 46.5054 97.727 46.5054 97.5856V95.3228H47.4979V97.4442C47.4979 97.727 47.4979 98.0099 47.6396 98.1513C47.7814 98.2928 47.9232 98.4342 48.2068 98.4342C48.4904 98.4342 48.6321 98.2928 48.7739 98.1513C48.9157 98.0099 48.9157 97.727 48.9157 97.3028V95.3228H49.9082V98.9999H48.9157V98.8585Z" fill="white"/>
<path d="M51.7514 95.1814V95.8885C51.7514 95.7471 51.8932 95.6057 51.8932 95.6057C52.035 95.4642 52.035 95.4643 52.1768 95.3228C52.3185 95.3228 52.4603 95.1814 52.4603 95.1814C52.6021 95.1814 52.7439 95.1814 52.8857 95.1814C52.8857 95.1814 53.0275 95.1814 53.1693 95.1814V96.1714H53.0275H52.8857C52.7439 96.1714 52.6021 96.1714 52.4603 96.3128C52.3185 96.3128 52.1768 96.4543 52.1768 96.5957C52.035 96.7371 52.035 96.8785 52.035 97.02C52.035 97.1614 52.035 97.3028 52.035 97.4442V99.1414H51.0425V95.4642H51.7514V95.1814Z" fill="white"/>
<path d="M57.9899 93.7671C58.2735 93.7671 58.4153 93.7671 58.6989 93.7671C58.8406 93.7671 59.1242 93.9085 59.266 93.9085C59.4078 94.0499 59.5496 94.1914 59.5496 94.3328C59.6914 94.4742 59.6914 94.7571 59.6914 94.8985C59.6914 95.1814 59.6914 95.3228 59.5496 95.6057C59.4078 95.7471 59.266 95.8885 58.9824 96.03C59.266 96.1714 59.5496 96.3128 59.6914 96.4542C59.8331 96.7371 59.9749 97.02 59.9749 97.3028C59.9749 97.5857 59.9749 97.7271 59.8331 98.01C59.6914 98.1514 59.5496 98.2928 59.4078 98.4342C59.266 98.5757 58.9824 98.5757 58.8406 98.7171C58.5571 98.7171 58.4153 98.8585 58.1317 98.8585H55.5796V93.7671H57.9899ZM57.8481 95.8885C57.9899 95.8885 58.2735 95.8885 58.2735 95.7471C58.4153 95.6057 58.4153 95.4642 58.4153 95.3228C58.4153 95.1814 58.4153 95.0399 58.4153 95.0399C58.4153 94.8985 58.2735 94.8985 58.2735 94.8985C58.2735 94.7571 58.1317 94.7571 58.1317 94.7571C57.9899 94.7571 57.9899 94.7571 57.8481 94.7571H56.7139V95.8885H57.8481ZM57.9899 98.01C58.1317 98.01 58.2735 98.01 58.2735 98.01C58.4153 98.01 58.4153 98.0099 58.5571 97.8685C58.6989 97.8685 58.6989 97.7271 58.6989 97.7271C58.6989 97.5857 58.6989 97.5857 58.6989 97.4442C58.6989 97.1614 58.5571 97.02 58.4153 96.8785C58.2735 96.7371 58.1317 96.7371 57.8481 96.7371H56.7139V98.1514H57.9899V98.01Z" fill="white"/>
<path d="M63.0939 98.8585V98.2928C62.9522 98.5756 62.8104 98.717 62.5268 98.717C62.385 98.9999 62.1014 98.9999 61.9597 98.9999C61.6761 98.9999 61.3925 98.9999 61.2507 98.8585C61.109 98.717 60.9672 98.717 60.8254 98.5756C60.6836 98.4342 60.6836 98.2928 60.6836 98.1513C60.6836 98.0099 60.6836 97.727 60.6836 97.5856V95.3228H61.6761V97.4442C61.6761 97.727 61.6761 98.0099 61.8179 98.1513C61.9597 98.2928 62.1014 98.4342 62.385 98.4342C62.6686 98.4342 62.8104 98.2928 62.9522 98.1513C63.0939 98.0099 63.0939 97.727 63.0939 97.3028V95.3228H64.0864V98.9999H63.0939V98.8585Z" fill="white"/>
<path d="M65.6463 98.0099C65.6463 98.1514 65.7881 98.1514 65.7881 98.1514C65.9299 98.1514 65.9299 98.2928 66.0717 98.2928C66.2134 98.2928 66.2134 98.2928 66.3552 98.2928C66.497 98.2928 66.497 98.2928 66.6388 98.2928C66.7806 98.2928 66.7806 98.2928 66.9224 98.1514L67.0641 98.0099C67.0641 98.0099 67.0641 97.8685 67.0641 97.7271C67.0641 97.5856 66.9224 97.4442 66.7806 97.4442C66.6388 97.3028 66.3552 97.3028 65.9299 97.1613C65.7881 97.1613 65.6463 97.0199 65.5045 97.0199C65.3627 97.0199 65.221 96.8785 65.0792 96.8785C64.9374 96.7371 64.9374 96.7371 64.7956 96.5956C64.7956 96.4542 64.6538 96.3128 64.6538 96.1714C64.6538 95.8885 64.6538 95.7471 64.7956 95.6056C64.9374 95.4642 65.0792 95.3228 65.2209 95.1814C65.3627 95.0399 65.5045 95.0399 65.7881 95.0399C65.9299 95.0399 66.2134 95.0399 66.3552 95.0399C66.497 95.0399 66.7806 95.0399 66.9224 95.0399C67.0642 95.0399 67.3477 95.1814 67.4895 95.1814C67.6313 95.3228 67.7731 95.3228 67.9149 95.6056C68.0566 95.7471 68.0566 95.8885 68.0566 96.1714H67.0641C67.0641 96.0299 66.9224 95.8885 66.7806 95.7471C66.6388 95.7471 66.497 95.6056 66.3552 95.6056H66.2134H66.0717C66.0717 95.6056 65.9299 95.6056 65.9299 95.7471V95.8885C65.9299 96.0299 65.9299 96.0299 66.0717 96.1714C66.0717 96.1714 66.2134 96.3128 66.3552 96.3128C66.497 96.3128 66.6388 96.3128 66.7806 96.4542C66.9224 96.4542 67.0642 96.4542 67.2059 96.5956C67.3477 96.5956 67.4895 96.7371 67.6313 96.7371C67.7731 96.7371 67.9149 96.8785 68.0566 96.8785C68.1984 97.0199 68.1984 97.0199 68.3402 97.1613C68.3402 97.3028 68.482 97.4442 68.482 97.5856C68.482 97.8685 68.482 98.0099 68.3402 98.1514C68.1984 98.2928 68.0566 98.4342 67.9149 98.5756C67.7731 98.7171 67.6313 98.7171 67.3477 98.7171C67.0641 98.7171 66.9224 98.7171 66.7806 98.7171C66.497 98.7171 66.3552 98.7171 66.2134 98.7171C66.0717 98.7171 65.7881 98.5756 65.6463 98.4342C65.5045 98.2928 65.3627 98.1514 65.2209 98.0099C65.0792 97.8685 65.0792 97.5856 65.0792 97.4442H66.0717C65.6463 97.8685 65.6463 97.8685 65.6463 98.0099Z" fill="white"/>
<path d="M68.7656 94.6157V93.7671H69.7581V94.6157H68.7656ZM69.7581 95.1814V98.8585H68.7656V95.1814H69.7581Z" fill="white"/>
<path d="M71.4593 95.1814V95.7471C71.6011 95.4642 71.7429 95.3228 72.0264 95.3228C72.1682 95.1814 72.4518 95.1814 72.5936 95.1814C72.8771 95.1814 73.1607 95.1814 73.3025 95.3228C73.4443 95.4643 73.5861 95.4642 73.7278 95.6057C73.8696 95.7471 73.8696 95.8885 73.8696 96.03C73.8696 96.1714 73.8696 96.4543 73.8696 96.5957V98.8585H72.8771V96.7371C72.8771 96.4542 72.8771 96.1714 72.7353 96.03C72.5936 95.8885 72.4518 95.7471 72.1682 95.7471C71.8846 95.7471 71.7429 95.8885 71.6011 96.03C71.4593 96.1714 71.4593 96.4542 71.4593 96.8785V98.8585H70.4668V95.1814H71.4593Z" fill="white"/>
<path d="M75.8547 98.01C75.9965 98.1514 76.28 98.2928 76.5636 98.2928C76.7054 98.2928 76.989 98.2928 77.1307 98.1514C77.2725 98.01 77.4143 98.0099 77.4143 97.8685H78.265C78.1232 98.2928 77.8397 98.5757 77.5561 98.8585C77.2725 98.8585 76.8472 98.9999 76.5636 98.9999C76.28 98.9999 75.9965 98.9999 75.7129 98.8585C75.4293 98.7171 75.2875 98.5757 75.1458 98.4342C75.004 98.2928 74.8622 98.0099 74.7204 97.8685C74.5786 97.5857 74.5786 97.3028 74.5786 97.02C74.5786 96.7371 74.5786 96.4542 74.7204 96.3128C74.8622 96.03 75.004 95.8885 75.1458 95.7471C75.2875 95.6057 75.5711 95.4643 75.7129 95.3228C75.9965 95.1814 76.1383 95.1814 76.4218 95.1814C76.7054 95.1814 76.989 95.1814 77.2725 95.3228C77.5561 95.4643 77.6979 95.6057 77.8397 95.7471C77.9815 95.8885 78.1232 96.1714 78.1232 96.4542C78.1232 96.7371 78.265 97.02 78.265 97.3028H75.5711C75.5711 97.5857 75.7129 97.8685 75.8547 98.01ZM76.989 96.03C76.8472 95.8885 76.7054 95.8885 76.4218 95.8885C76.28 95.8885 76.1382 95.8885 75.9965 96.03C75.8547 96.03 75.8547 96.1714 75.7129 96.1714C75.5711 96.1714 75.5711 96.3128 75.5711 96.4542C75.5711 96.5957 75.5711 96.5957 75.5711 96.7371H77.2725C77.2725 96.4542 77.1307 96.1714 76.989 96.03Z" fill="white"/>
<path d="M79.8245 98.0099C79.8245 98.1514 79.9663 98.1514 79.9663 98.1514C80.1081 98.1514 80.1081 98.2928 80.2499 98.2928C80.3917 98.2928 80.3917 98.2928 80.5335 98.2928C80.6752 98.2928 80.6752 98.2928 80.817 98.2928C80.9588 98.2928 80.9588 98.2928 81.1006 98.1514L81.2424 98.0099C81.2424 98.0099 81.2424 97.8685 81.2424 97.7271C81.2424 97.5856 81.1006 97.4442 80.9588 97.4442C80.817 97.3028 80.5335 97.3028 80.1081 97.1613C79.9663 97.1613 79.8245 97.0199 79.6827 97.0199C79.541 97.0199 79.3992 96.8785 79.2574 96.8785C79.1156 96.7371 79.1156 96.7371 78.9738 96.5956C78.9738 96.4542 78.832 96.3128 78.832 96.1714C78.832 95.8885 78.832 95.7471 78.9738 95.6056C79.1156 95.4642 79.2574 95.3228 79.3992 95.1814C79.541 95.0399 79.6827 95.0399 79.9663 95.0399C80.1081 95.0399 80.3917 95.0399 80.5335 95.0399C80.6752 95.0399 80.9588 95.0399 81.1006 95.0399C81.2424 95.0399 81.5259 95.1814 81.6677 95.1814C81.8095 95.3228 81.9513 95.3228 82.0931 95.6056C82.2349 95.7471 82.2349 95.8885 82.2349 96.1714H81.2424C81.2424 96.0299 81.1006 95.8885 80.9588 95.7471C80.817 95.7471 80.6752 95.6056 80.5335 95.6056H80.3917H80.2499C80.2499 95.6056 80.1081 95.6056 80.1081 95.7471V95.8885C80.1081 96.0299 80.1081 96.0299 80.2499 96.1714C80.2499 96.1714 80.3917 96.3128 80.5335 96.3128C80.6752 96.3128 80.817 96.3128 80.9588 96.4542C81.1006 96.4542 81.2424 96.4542 81.3842 96.5956C81.526 96.5956 81.6677 96.7371 81.8095 96.7371C81.9513 96.7371 82.0931 96.8785 82.2349 96.8785C82.3767 97.0199 82.3767 97.0199 82.5184 97.1613C82.5184 97.3028 82.6602 97.4442 82.6602 97.5856C82.6602 97.8685 82.6602 98.0099 82.5184 98.1514C82.3767 98.2928 82.2349 98.4342 82.0931 98.5756C81.9513 98.7171 81.8095 98.7171 81.526 98.7171C81.2424 98.7171 81.1006 98.7171 80.9588 98.7171C80.6752 98.7171 80.5335 98.7171 80.3917 98.7171C80.2499 98.7171 79.9663 98.5756 79.8245 98.4342C79.6827 98.2928 79.541 98.1514 79.3992 98.0099C79.2574 97.8685 79.2574 97.5856 79.2574 97.4442H80.2499C79.6827 97.8685 79.6827 97.8685 79.8245 98.0099Z" fill="white"/>
<path d="M83.6531 98.0099C83.6531 98.1514 83.7949 98.1514 83.7949 98.1514C83.9367 98.1514 83.9367 98.2928 84.0785 98.2928C84.2203 98.2928 84.2203 98.2928 84.3621 98.2928C84.5038 98.2928 84.5038 98.2928 84.6456 98.2928C84.7874 98.2928 84.7874 98.2928 84.9292 98.1514L85.071 98.0099C85.071 98.0099 85.071 97.8685 85.071 97.7271C85.071 97.5856 84.9292 97.4442 84.7874 97.4442C84.6456 97.3028 84.3621 97.3028 83.9367 97.1613C83.7949 97.1613 83.6531 97.0199 83.5114 97.0199C83.3696 97.0199 83.2278 96.8785 83.086 96.8785C82.9442 96.7371 82.9442 96.7371 82.8024 96.5956C82.8024 96.4542 82.6606 96.3128 82.6606 96.1714C82.6606 95.8885 82.6606 95.7471 82.8024 95.6056C82.9442 95.4642 83.086 95.3228 83.2278 95.1814C83.3696 95.0399 83.5114 95.0399 83.7949 95.0399C83.9367 95.0399 84.2203 95.0399 84.3621 95.0399C84.5038 95.0399 84.7874 95.0399 84.9292 95.0399C85.071 95.0399 85.3546 95.1814 85.4963 95.1814C85.6381 95.3228 85.7799 95.3228 85.9217 95.6056C86.0635 95.7471 86.0635 95.8885 86.0635 96.1714H85.071C85.071 96.0299 84.9292 95.8885 84.7874 95.7471C84.6456 95.7471 84.5038 95.6056 84.3621 95.6056H84.2203H84.0785C84.0785 95.6056 83.9367 95.6056 83.9367 95.7471V95.8885C83.9367 96.0299 83.9367 96.0299 84.0785 96.1714C84.0785 96.1714 84.2203 96.3128 84.3621 96.3128C84.5038 96.3128 84.6456 96.3128 84.7874 96.4542C84.9292 96.4542 85.071 96.4542 85.2128 96.5956C85.3546 96.5956 85.4963 96.7371 85.6381 96.7371C85.7799 96.7371 85.9217 96.8785 86.0635 96.8785C86.2053 97.0199 86.2053 97.0199 86.347 97.1613C86.347 97.3028 86.4888 97.4442 86.4888 97.5856C86.4888 97.8685 86.4888 98.0099 86.347 98.1514C86.2053 98.2928 86.0635 98.4342 85.9217 98.5756C85.7799 98.7171 85.6381 98.7171 85.3546 98.7171C85.071 98.7171 84.9292 98.7171 84.7874 98.7171C84.5038 98.7171 84.3621 98.7171 84.2203 98.7171C84.0785 98.7171 83.7949 98.5756 83.6531 98.4342C83.5114 98.2928 83.3696 98.1514 83.2278 98.0099C83.086 97.8685 83.086 97.5856 83.086 97.4442H84.0785C83.5114 97.8685 83.5114 97.8685 83.6531 98.0099Z" fill="white"/>
</g>
<defs>
<clipPath id="clip0_333_1098">
<rect width="170" height="99" fill="white"/>
</clipPath>
</defs>
</svg>
